solid OpenSCAD_Model
  facet normal -1 0 0
    outer loop
      vertex 0 88 -50.8068
      vertex 0 10 0
      vertex 0 88 -45.0333
    endloop
  endfacet
  facet normal -1 0 0
    outer loop
      vertex 0 0 0
      vertex 0 8.9 5
      vertex 0 1.36637e-06 0
    endloop
  endfacet
  facet normal -1 0 0
    outer loop
      vertex 0 10 0
      vertex 0 1.36637e-06 0
      vertex 0 8.9 5
    endloop
  endfacet
  facet normal -1 0 0
    outer loop
      vertex 0 1.36637e-06 0
      vertex 0 10 0
      vertex 0 88 -50.8068
    endloop
  endfacet
  facet normal -1 0 0
    outer loop
      vertex 0 79.1 22.1
      vertex 0 88 0
      vertex 0 79.1 5
    endloop
  endfacet
  facet normal -1 0 0
    outer loop
      vertex 0 10 0
      vertex 0 79.1 5
      vertex 0 88 0
    endloop
  endfacet
  facet normal -1 -0 0
    outer loop
      vertex 0 79.1 5
      vertex 0 10 0
      vertex 0 8.9 5
    endloop
  endfacet
  facet normal -1 0 0
    outer loop
      vertex 0 88 0
      vertex 0 79.1 22.1
      vertex 0 88 32
    endloop
  endfacet
  facet normal -1 0 0
    outer loop
      vertex 0 8.9 22.1
      vertex 0 88 32
      vertex 0 79.1 22.1
    endloop
  endfacet
  facet normal -1 -0 0
    outer loop
      vertex 0 8.9 5
      vertex 0 0 0
      vertex 0 8.9 22.1
    endloop
  endfacet
  facet normal -1 0 0
    outer loop
      vertex 0 8.9 22.1
      vertex 0 0 32
      vertex 0 88 32
    endloop
  endfacet
  facet normal -1 0 0
    outer loop
      vertex 0 0 32
      vertex 0 8.9 22.1
      vertex 0 0 0
    endloop
  endfacet
  facet normal 0 0 1
    outer loop
      vertex 36 135 32
      vertex 19 135 32
      vertex 36 88 32
    endloop
  endfacet
  facet normal 0 0 1
    outer loop
      vertex 104 135 32
      vertex 87 135 32
      vertex 104 88 32
    endloop
  endfacet
  facet normal 0 0 1
    outer loop
      vertex 123 88 32
      vertex 118 83 32
      vertex 123 0 32
    endloop
  endfacet
  facet normal -0 0 1
    outer loop
      vertex 104 88 32
      vertex 118 83 32
      vertex 123 88 32
    endloop
  endfacet
  facet normal 0 0 1
    outer loop
      vertex 87 88 32
      vertex 104 88 32
      vertex 87 135 32
    endloop
  endfacet
  facet normal -0 0 1
    outer loop
      vertex 87 88 32
      vertex 118 83 32
      vertex 104 88 32
    endloop
  endfacet
  facet normal -0 0 1
    outer loop
      vertex 36 88 32
      vertex 118 83 32
      vertex 87 88 32
    endloop
  endfacet
  facet normal 0 0 1
    outer loop
      vertex 19 88 32
      vertex 36 88 32
      vertex 19 135 32
    endloop
  endfacet
  facet normal 0 0 1
    outer loop
      vertex 5 83 32
      vertex 36 88 32
      vertex 19 88 32
    endloop
  endfacet
  facet normal 0 0 1
    outer loop
      vertex 36 88 32
      vertex 5 83 32
      vertex 118 83 32
    endloop
  endfacet
  facet normal 0 0 1
    outer loop
      vertex 5 83 32
      vertex 0 88 32
      vertex 5 5 32
    endloop
  endfacet
  facet normal -0 0 1
    outer loop
      vertex 0 88 32
      vertex 5 83 32
      vertex 19 88 32
    endloop
  endfacet
  facet normal -0 0 1
    outer loop
      vertex 118 5 32
      vertex 123 0 32
      vertex 118 83 32
    endloop
  endfacet
  facet normal -0 0 1
    outer loop
      vertex 5 5 32
      vertex 123 0 32
      vertex 118 5 32
    endloop
  endfacet
  facet normal 0 0 1
    outer loop
      vertex 5 5 32
      vertex 0 0 32
      vertex 123 0 32
    endloop
  endfacet
  facet normal 0 0 1
    outer loop
      vertex 0 0 32
      vertex 5 5 32
      vertex 0 88 32
    endloop
  endfacet
  facet normal 1 0 0
    outer loop
      vertex 123 88 32
      vertex 123 10 0
      vertex 123 88 0
    endloop
  endfacet
  facet normal 1 -0 0
    outer loop
      vertex 123 0 32
      vertex 123 10 0
      vertex 123 88 32
    endloop
  endfacet
  facet normal 1 0 0
    outer loop
      vertex 123 10 0
      vertex 123 0 32
      vertex 123 1.36637e-06 0
    endloop
  endfacet
  facet normal 1 0 0
    outer loop
      vertex 123 1.36637e-06 0
      vertex 123 0 32
      vertex 123 0 0
    endloop
  endfacet
  facet normal 1 0 0
    outer loop
      vertex 123 10 0
      vertex 123 88 -50.8068
      vertex 123 88 -45.0333
    endloop
  endfacet
  facet normal 1 0 0
    outer loop
      vertex 123 88 -50.8068
      vertex 123 10 0
      vertex 123 1.36637e-06 0
    endloop
  endfacet
  facet normal 0 1 0
    outer loop
      vertex 123 88 32
      vertex 104 88 24
      vertex 104 88 32
    endloop
  endfacet
  facet normal 0 1 0
    outer loop
      vertex 118 88 0
      vertex 87 88 24
      vertex 104 88 24
    endloop
  endfacet
  facet normal 0 1 0
    outer loop
      vertex 87 88 24
      vertex 118 88 0
      vertex 36 88 24
    endloop
  endfacet
  facet normal 0 1 0
    outer loop
      vertex 123 88 32
      vertex 118.3 88 0
      vertex 104 88 24
    endloop
  endfacet
  facet normal 0 1 0
    outer loop
      vertex 118.3 88 0
      vertex 123 88 32
      vertex 123 88 0
    endloop
  endfacet
  facet normal 0 1 -0
    outer loop
      vertex 87 88 24
      vertex 36 88 32
      vertex 87 88 32
    endloop
  endfacet
  facet normal 0 1 0
    outer loop
      vertex 36 88 32
      vertex 87 88 24
      vertex 36 88 24
    endloop
  endfacet
  facet normal 0 1 -0
    outer loop
      vertex 19 88 24
      vertex 0 88 32
      vertex 19 88 32
    endloop
  endfacet
  facet normal 0 1 -0
    outer loop
      vertex 118 88 0
      vertex 104 88 24
      vertex 118.3 88 0
    endloop
  endfacet
  facet normal 0 1 0
    outer loop
      vertex 5.3 88 0
      vertex 36 88 24
      vertex 118 88 0
    endloop
  endfacet
  facet normal 0 1 0
    outer loop
      vertex 36 88 24
      vertex 5.3 88 0
      vertex 19 88 24
    endloop
  endfacet
  facet normal 0 1 0
    outer loop
      vertex 5 88 0
      vertex 19 88 24
      vertex 5.3 88 0
    endloop
  endfacet
  facet normal 0 1 0
    outer loop
      vertex 19 88 24
      vertex 5 88 0
      vertex 0 88 32
    endloop
  endfacet
  facet normal 0 1 0
    outer loop
      vertex 0 88 32
      vertex 5 88 0
      vertex 0 88 0
    endloop
  endfacet
  facet normal 0 1 -0
    outer loop
      vertex 15 88 -50.8068
      vertex 5.3 88 -45.0333
      vertex 15 88 -45.0333
    endloop
  endfacet
  facet normal 0 1 0
    outer loop
      vertex 0 88 -50.8068
      vertex 5.3 88 -45.0333
      vertex 15 88 -50.8068
    endloop
  endfacet
  facet normal 0 1 0
    outer loop
      vertex 5.3 88 -45.0333
      vertex 0 88 -50.8068
      vertex 5 88 -45.0333
    endloop
  endfacet
  facet normal 0 1 0
    outer loop
      vertex 5 88 -45.0333
      vertex 0 88 -50.8068
      vertex 0 88 -45.0333
    endloop
  endfacet
  facet normal 0 1 -0
    outer loop
      vertex 123 88 -50.8068
      vertex 118.3 88 -45.0333
      vertex 123 88 -45.0333
    endloop
  endfacet
  facet normal 0 1 0
    outer loop
      vertex 118.3 88 -45.0333
      vertex 123 88 -50.8068
      vertex 118 88 -45.0333
    endloop
  endfacet
  facet normal 0 1 0
    outer loop
      vertex 108 88 -50.8068
      vertex 118 88 -45.0333
      vertex 123 88 -50.8068
    endloop
  endfacet
  facet normal 0 1 0
    outer loop
      vertex 118 88 -45.0333
      vertex 108 88 -50.8068
      vertex 108 88 -45.0333
    endloop
  endfacet
  facet normal 0 1 -0
    outer loop
      vertex 5.3 88 -45.0333
      vertex 5 88 0
      vertex 5.3 88 0
    endloop
  endfacet
  facet normal 0 1 0
    outer loop
      vertex 5 88 0
      vertex 5.3 88 -45.0333
      vertex 5 88 -45.0333
    endloop
  endfacet
  facet normal 0 1 -0
    outer loop
      vertex 118.3 88 -45.0333
      vertex 118 88 0
      vertex 118.3 88 0
    endloop
  endfacet
  facet normal 0 1 0
    outer loop
      vertex 118 88 0
      vertex 118.3 88 -45.0333
      vertex 118 88 -45.0333
    endloop
  endfacet
  facet normal 0 0 -1
    outer loop
      vertex 0 10 0
      vertex 5 88 0
      vertex 5 10 0
    endloop
  endfacet
  facet normal -0 0 -1
    outer loop
      vertex 5 88 0
      vertex 0 10 0
      vertex 0 88 0
    endloop
  endfacet
  facet normal 0 0 -1
    outer loop
      vertex 123 0 0
      vertex 108 1.36637e-06 0
      vertex 123 1.36637e-06 0
    endloop
  endfacet
  facet normal 0 0 -1
    outer loop
      vertex 108 1.36637e-06 0
      vertex 15 1.36637e-06 0
      vertex 108 8.9 0
    endloop
  endfacet
  facet normal 0 0 -1
    outer loop
      vertex 123 0 0
      vertex 15 1.36637e-06 0
      vertex 108 1.36637e-06 0
    endloop
  endfacet
  facet normal 0 0 -1
    outer loop
      vertex 0 0 0
      vertex 15 1.36637e-06 0
      vertex 123 0 0
    endloop
  endfacet
  facet normal -0 0 -1
    outer loop
      vertex 15 1.36637e-06 0
      vertex 0 0 0
      vertex 0 1.36637e-06 0
    endloop
  endfacet
  facet normal -0 0 -1
    outer loop
      vertex 108 8.9 0
      vertex 15 1.36637e-06 0
      vertex 15 8.9 0
    endloop
  endfacet
  facet normal 0 0 -1
    outer loop
      vertex 118.3 10 0
      vertex 123 88 0
      vertex 123 10 0
    endloop
  endfacet
  facet normal -0 0 -1
    outer loop
      vertex 123 88 0
      vertex 118.3 10 0
      vertex 118.3 88 0
    endloop
  endfacet
  facet normal 0 0 -1
    outer loop
      vertex 10.65 10 0
      vertex 5.3 10 0
      vertex 10.65 79.1 0
    endloop
  endfacet
  facet normal 0 0 -1
    outer loop
      vertex 112.35 79.1 0
      vertex 118 10 0
      vertex 112.35 10 0
    endloop
  endfacet
  facet normal 0 0 -1
    outer loop
      vertex 118 10 0
      vertex 112.35 79.1 0
      vertex 118 88 0
    endloop
  endfacet
  facet normal 0 0 -1
    outer loop
      vertex 5.3 88 0
      vertex 112.35 79.1 0
      vertex 10.65 79.1 0
    endloop
  endfacet
  facet normal 0 0 -1
    outer loop
      vertex 112.35 79.1 0
      vertex 5.3 88 0
      vertex 118 88 0
    endloop
  endfacet
  facet normal 0 0 -1
    outer loop
      vertex 5.3 88 0
      vertex 10.65 79.1 0
      vertex 5.3 10 0
    endloop
  endfacet
  facet normal 0 -1 0
    outer loop
      vertex 0 0 0
      vertex 123 0 32
      vertex 0 0 32
    endloop
  endfacet
  facet normal 0 -1 -0
    outer loop
      vertex 123 0 32
      vertex 0 0 0
      vertex 123 0 0
    endloop
  endfacet
  facet normal 1 0 0
    outer loop
      vertex 5 83 32
      vertex 5 79.1 22.1
      vertex 5 83 5
    endloop
  endfacet
  facet normal 1 0 0
    outer loop
      vertex 5 83 32
      vertex 5 8.9 22.1
      vertex 5 79.1 22.1
    endloop
  endfacet
  facet normal 1 -0 0
    outer loop
      vertex 5 5 32
      vertex 5 8.9 22.1
      vertex 5 83 32
    endloop
  endfacet
  facet normal 1 0 0
    outer loop
      vertex 5 5 5
      vertex 5 8.9 22.1
      vertex 5 5 32
    endloop
  endfacet
  facet normal 1 0 0
    outer loop
      vertex 5 8.9 22.1
      vertex 5 5 5
      vertex 5 8.9 5
    endloop
  endfacet
  facet normal 1 0 0
    outer loop
      vertex 5 83 5
      vertex 5 79.1 22.1
      vertex 5 79.1 5
    endloop
  endfacet
  facet normal -1 0 0
    outer loop
      vertex 118 5 5
      vertex 118 83 32
      vertex 118 83 5
    endloop
  endfacet
  facet normal -1 -0 0
    outer loop
      vertex 118 83 32
      vertex 118 5 5
      vertex 118 5 32
    endloop
  endfacet
  facet normal 0 0 1
    outer loop
      vertex 5 79.1 5
      vertex 5.3 83 5
      vertex 5 83 5
    endloop
  endfacet
  facet normal 0 0 1
    outer loop
      vertex 5.3 83 5
      vertex 5 79.1 5
      vertex 5.3 5 5
    endloop
  endfacet
  facet normal -0 0 1
    outer loop
      vertex 5 8.9 5
      vertex 5.3 5 5
      vertex 5 79.1 5
    endloop
  endfacet
  facet normal 0 0 1
    outer loop
      vertex 5.3 5 5
      vertex 5 8.9 5
      vertex 5 5 5
    endloop
  endfacet
  facet normal 0 0 1
    outer loop
      vertex 118 83 5
      vertex 112.35 79.1 5
      vertex 118 5 5
    endloop
  endfacet
  facet normal -0 0 1
    outer loop
      vertex 5.3 83 5
      vertex 112.35 79.1 5
      vertex 118 83 5
    endloop
  endfacet
  facet normal 0 0 1
    outer loop
      vertex 10.65 79.1 5
      vertex 5.3 83 5
      vertex 10.65 8.9 5
    endloop
  endfacet
  facet normal 0 0 1
    outer loop
      vertex 112.35 79.1 5
      vertex 5.3 83 5
      vertex 10.65 79.1 5
    endloop
  endfacet
  facet normal -0 0 1
    outer loop
      vertex 112.35 8.9 5
      vertex 118 5 5
      vertex 112.35 79.1 5
    endloop
  endfacet
  facet normal 0 0 1
    outer loop
      vertex 5.3 5 5
      vertex 112.35 8.9 5
      vertex 10.65 8.9 5
    endloop
  endfacet
  facet normal 0 0 1
    outer loop
      vertex 112.35 8.9 5
      vertex 5.3 5 5
      vertex 118 5 5
    endloop
  endfacet
  facet normal 0 0 1
    outer loop
      vertex 5.3 5 5
      vertex 10.65 8.9 5
      vertex 5.3 83 5
    endloop
  endfacet
  facet normal -0 0 1
    outer loop
      vertex 0 79.1 5
      vertex 5 8.9 5
      vertex 5 79.1 5
    endloop
  endfacet
  facet normal 0 0 1
    outer loop
      vertex 5 8.9 5
      vertex 0 79.1 5
      vertex 0 8.9 5
    endloop
  endfacet
  facet normal 0 1 0
    outer loop
      vertex 5.3 5 5
      vertex 118 5 32
      vertex 118 5 5
    endloop
  endfacet
  facet normal 0 1 0
    outer loop
      vertex 118 5 32
      vertex 5.3 5 5
      vertex 5 5 32
    endloop
  endfacet
  facet normal 0 1 0
    outer loop
      vertex 5 5 32
      vertex 5.3 5 5
      vertex 5 5 5
    endloop
  endfacet
  facet normal 0 -1 0
    outer loop
      vertex 5.3 83 5
      vertex 5 83 32
      vertex 5 83 5
    endloop
  endfacet
  facet normal 0 -1 0
    outer loop
      vertex 5 83 32
      vertex 5.3 83 5
      vertex 118 83 32
    endloop
  endfacet
  facet normal 0 -1 -0
    outer loop
      vertex 118 83 32
      vertex 5.3 83 5
      vertex 118 83 5
    endloop
  endfacet
  facet normal 1 0 0
    outer loop
      vertex 10.65 79.1 5
      vertex 10.65 10 0
      vertex 10.65 79.1 0
    endloop
  endfacet
  facet normal 1 -0 0
    outer loop
      vertex 10.65 8.9 5
      vertex 10.65 10 0
      vertex 10.65 79.1 5
    endloop
  endfacet
  facet normal 1 0 0
    outer loop
      vertex 10.65 10 0
      vertex 10.65 8.9 5
      vertex 10.65 8.9 0.635086
    endloop
  endfacet
  facet normal -1 0 0
    outer loop
      vertex 112.35 10 0
      vertex 112.35 79.1 5
      vertex 112.35 79.1 0
    endloop
  endfacet
  facet normal -1 0 0
    outer loop
      vertex 112.35 8.9 5
      vertex 112.35 10 0
      vertex 112.35 8.9 0.635086
    endloop
  endfacet
  facet normal -1 0 0
    outer loop
      vertex 112.35 10 0
      vertex 112.35 8.9 5
      vertex 112.35 79.1 5
    endloop
  endfacet
  facet normal 0 -1 0
    outer loop
      vertex 10.65 79.1 0
      vertex 112.35 79.1 5
      vertex 10.65 79.1 5
    endloop
  endfacet
  facet normal 0 -1 -0
    outer loop
      vertex 112.35 79.1 5
      vertex 10.65 79.1 0
      vertex 112.35 79.1 0
    endloop
  endfacet
  facet normal 0 1 -0
    outer loop
      vertex 108 8.9 0
      vertex 15 8.9 0.635086
      vertex 108 8.9 0.635086
    endloop
  endfacet
  facet normal 0 1 0
    outer loop
      vertex 15 8.9 0.635086
      vertex 108 8.9 0
      vertex 15 8.9 0
    endloop
  endfacet
  facet normal 0 1 0
    outer loop
      vertex 108 8.9 0.635086
      vertex 112.35 8.9 5
      vertex 112.35 8.9 0.635086
    endloop
  endfacet
  facet normal 0 1 0
    outer loop
      vertex 112.35 8.9 5
      vertex 108 8.9 0.635086
      vertex 10.65 8.9 5
    endloop
  endfacet
  facet normal 0 1 -0
    outer loop
      vertex 15 8.9 0.635086
      vertex 10.65 8.9 5
      vertex 108 8.9 0.635086
    endloop
  endfacet
  facet normal 0 1 0
    outer loop
      vertex 10.65 8.9 5
      vertex 15 8.9 0.635086
      vertex 10.65 8.9 0.635086
    endloop
  endfacet
  facet normal 0 0 -1
    outer loop
      vertex 0 8.9 22.1
      vertex 5 79.1 22.1
      vertex 5 8.9 22.1
    endloop
  endfacet
  facet normal -0 0 -1
    outer loop
      vertex 5 79.1 22.1
      vertex 0 8.9 22.1
      vertex 0 79.1 22.1
    endloop
  endfacet
  facet normal 0 -1 0
    outer loop
      vertex 0 79.1 5
      vertex 5 79.1 22.1
      vertex 0 79.1 22.1
    endloop
  endfacet
  facet normal 0 -1 -0
    outer loop
      vertex 5 79.1 22.1
      vertex 0 79.1 5
      vertex 5 79.1 5
    endloop
  endfacet
  facet normal 0 1 -0
    outer loop
      vertex 5 8.9 5
      vertex 0 8.9 22.1
      vertex 5 8.9 22.1
    endloop
  endfacet
  facet normal 0 1 0
    outer loop
      vertex 0 8.9 22.1
      vertex 5 8.9 5
      vertex 0 8.9 5
    endloop
  endfacet
  facet normal -1 0 0
    outer loop
      vertex 19 127 24
      vertex 19 135 -26
      vertex 19 127 -26
    endloop
  endfacet
  facet normal -1 0 0
    outer loop
      vertex 19 135 -26
      vertex 19 127 24
      vertex 19 135 32
    endloop
  endfacet
  facet normal -1 0 0
    outer loop
      vertex 19 88 32
      vertex 19 127 24
      vertex 19 88 24
    endloop
  endfacet
  facet normal -1 0 0
    outer loop
      vertex 19 127 24
      vertex 19 88 32
      vertex 19 135 32
    endloop
  endfacet
  facet normal 1 0 0
    outer loop
      vertex 104 135 32
      vertex 104 127 24
      vertex 104 135 -26
    endloop
  endfacet
  facet normal 1 -0 0
    outer loop
      vertex 104 88 32
      vertex 104 127 24
      vertex 104 135 32
    endloop
  endfacet
  facet normal 1 0 0
    outer loop
      vertex 104 127 24
      vertex 104 88 32
      vertex 104 88 24
    endloop
  endfacet
  facet normal 1 0 0
    outer loop
      vertex 104 135 -26
      vertex 104 127 24
      vertex 104 127 -26
    endloop
  endfacet
  facet normal 0 1 -0
    outer loop
      vertex 104 135 -26
      vertex 87 135 32
      vertex 104 135 32
    endloop
  endfacet
  facet normal 0 1 0
    outer loop
      vertex 87 135 32
      vertex 104 135 -26
      vertex 87 135 -26
    endloop
  endfacet
  facet normal 0 1 -0
    outer loop
      vertex 36 135 -26
      vertex 19 135 32
      vertex 36 135 32
    endloop
  endfacet
  facet normal 0 1 0
    outer loop
      vertex 19 135 32
      vertex 36 135 -26
      vertex 19 135 -26
    endloop
  endfacet
  facet normal 0 0 -1
    outer loop
      vertex 19 127 -26
      vertex 36 135 -26
      vertex 36 127 -26
    endloop
  endfacet
  facet normal -0 0 -1
    outer loop
      vertex 36 135 -26
      vertex 19 127 -26
      vertex 19 135 -26
    endloop
  endfacet
  facet normal 0 0 -1
    outer loop
      vertex 87 127 -26
      vertex 104 135 -26
      vertex 104 127 -26
    endloop
  endfacet
  facet normal -0 0 -1
    outer loop
      vertex 104 135 -26
      vertex 87 127 -26
      vertex 87 135 -26
    endloop
  endfacet
  facet normal 0 0 -1
    outer loop
      vertex 19 88 24
      vertex 36 127 24
      vertex 36 88 24
    endloop
  endfacet
  facet normal -0 0 -1
    outer loop
      vertex 36 127 24
      vertex 19 88 24
      vertex 19 127 24
    endloop
  endfacet
  facet normal 0 0 -1
    outer loop
      vertex 87 88 24
      vertex 104 127 24
      vertex 104 88 24
    endloop
  endfacet
  facet normal -0 0 -1
    outer loop
      vertex 104 127 24
      vertex 87 88 24
      vertex 87 127 24
    endloop
  endfacet
  facet normal 0 -1 0
    outer loop
      vertex 19 127 -26
      vertex 36 127 24
      vertex 19 127 24
    endloop
  endfacet
  facet normal 0 -1 -0
    outer loop
      vertex 36 127 24
      vertex 19 127 -26
      vertex 36 127 -26
    endloop
  endfacet
  facet normal 0 -1 0
    outer loop
      vertex 87 127 -26
      vertex 104 127 24
      vertex 87 127 24
    endloop
  endfacet
  facet normal 0 -1 -0
    outer loop
      vertex 104 127 24
      vertex 87 127 -26
      vertex 104 127 -26
    endloop
  endfacet
  facet normal 1 0 0
    outer loop
      vertex 36 135 32
      vertex 36 127 24
      vertex 36 135 -26
    endloop
  endfacet
  facet normal 1 -0 0
    outer loop
      vertex 36 88 32
      vertex 36 127 24
      vertex 36 135 32
    endloop
  endfacet
  facet normal 1 0 0
    outer loop
      vertex 36 127 24
      vertex 36 88 32
      vertex 36 88 24
    endloop
  endfacet
  facet normal 1 0 0
    outer loop
      vertex 36 135 -26
      vertex 36 127 24
      vertex 36 127 -26
    endloop
  endfacet
  facet normal -1 0 0
    outer loop
      vertex 87 127 24
      vertex 87 135 -26
      vertex 87 127 -26
    endloop
  endfacet
  facet normal -1 0 0
    outer loop
      vertex 87 135 -26
      vertex 87 127 24
      vertex 87 135 32
    endloop
  endfacet
  facet normal -1 0 0
    outer loop
      vertex 87 88 32
      vertex 87 127 24
      vertex 87 88 24
    endloop
  endfacet
  facet normal -1 0 0
    outer loop
      vertex 87 127 24
      vertex 87 88 32
      vertex 87 135 32
    endloop
  endfacet
  facet normal 1 -0 0
    outer loop
      vertex 15 8.9 0
      vertex 15 88 -45.0333
      vertex 15 8.9 0.635086
    endloop
  endfacet
  facet normal 1 0 0
    outer loop
      vertex 15 88 -45.0333
      vertex 15 8.9 0
      vertex 15 88 -50.8068
    endloop
  endfacet
  facet normal 1 0 0
    outer loop
      vertex 15 88 -50.8068
      vertex 15 8.9 0
      vertex 15 1.36637e-06 0
    endloop
  endfacet
  facet normal 0 -0.5 -0.866025
    outer loop
      vertex 0 1.36637e-06 0
      vertex 15 88 -50.8068
      vertex 15 1.36637e-06 0
    endloop
  endfacet
  facet normal -0 -0.5 -0.866025
    outer loop
      vertex 15 88 -50.8068
      vertex 0 1.36637e-06 0
      vertex 0 88 -50.8068
    endloop
  endfacet
  facet normal -2.68045e-10 0.5 0.866025
    outer loop
      vertex 15 88 -45.0333
      vertex 10.65 10 0
      vertex 15 8.9 0.635086
    endloop
  endfacet
  facet normal -0 0.5 0.866025
    outer loop
      vertex 5.3 88 -45.0333
      vertex 10.65 10 0
      vertex 15 88 -45.0333
    endloop
  endfacet
  facet normal 0 0.5 0.866025
    outer loop
      vertex 10.65 10 0
      vertex 5.3 88 -45.0333
      vertex 5.3 10 0
    endloop
  endfacet
  facet normal 0 0.5 0.866025
    outer loop
      vertex 15 8.9 0.635086
      vertex 10.65 10 0
      vertex 10.65 8.9 0.635086
    endloop
  endfacet
  facet normal -0 0.5 0.866025
    outer loop
      vertex 0 88 -45.0333
      vertex 5 10 0
      vertex 5 88 -45.0333
    endloop
  endfacet
  facet normal 0 0.5 0.866025
    outer loop
      vertex 5 10 0
      vertex 0 88 -45.0333
      vertex 0 10 0
    endloop
  endfacet
  facet normal 1 0 0
    outer loop
      vertex 5.3 88 0
      vertex 5.3 10 0
      vertex 5.3 88 -45.0333
    endloop
  endfacet
  facet normal -1 0 0
    outer loop
      vertex 5 88 -45.0333
      vertex 5 10 0
      vertex 5 88 0
    endloop
  endfacet
  facet normal 0 -0.5 -0.866025
    outer loop
      vertex 108 1.36637e-06 0
      vertex 123 88 -50.8068
      vertex 123 1.36637e-06 0
    endloop
  endfacet
  facet normal -0 -0.5 -0.866025
    outer loop
      vertex 123 88 -50.8068
      vertex 108 1.36637e-06 0
      vertex 108 88 -50.8068
    endloop
  endfacet
  facet normal -1 0 0
    outer loop
      vertex 108 88 -50.8068
      vertex 108 8.9 0
      vertex 108 88 -45.0333
    endloop
  endfacet
  facet normal -1 -0 -0
    outer loop
      vertex 108 8.9 0
      vertex 108 88 -50.8068
      vertex 108 1.36637e-06 0
    endloop
  endfacet
  facet normal -1 0 0
    outer loop
      vertex 108 88 -45.0333
      vertex 108 8.9 0
      vertex 108 8.9 0.635086
    endloop
  endfacet
  facet normal -0 0.5 0.866025
    outer loop
      vertex 118.3 88 -45.0333
      vertex 123 10 0
      vertex 123 88 -45.0333
    endloop
  endfacet
  facet normal 0 0.5 0.866025
    outer loop
      vertex 123 10 0
      vertex 118.3 88 -45.0333
      vertex 118.3 10 0
    endloop
  endfacet
  facet normal 0 0.5 0.866025
    outer loop
      vertex 118 88 -45.0333
      vertex 112.35 10 0
      vertex 118 10 0
    endloop
  endfacet
  facet normal -0 0.5 0.866025
    outer loop
      vertex 108 88 -45.0333
      vertex 112.35 10 0
      vertex 118 88 -45.0333
    endloop
  endfacet
  facet normal 2.68045e-10 0.5 0.866025
    outer loop
      vertex 108 8.9 0.635086
      vertex 112.35 10 0
      vertex 108 88 -45.0333
    endloop
  endfacet
  facet normal 0 0.5 0.866025
    outer loop
      vertex 112.35 10 0
      vertex 108 8.9 0.635086
      vertex 112.35 8.9 0.635086
    endloop
  endfacet
  facet normal 1 0 0
    outer loop
      vertex 118.3 88 0
      vertex 118.3 10 0
      vertex 118.3 88 -45.0333
    endloop
  endfacet
  facet normal -1 0 0
    outer loop
      vertex 118 88 -45.0333
      vertex 118 10 0
      vertex 118 88 0
    endloop
  endfacet
endsolid OpenSCAD_Model
