solid OpenSCAD_Model
  facet normal -1 0 0
    outer loop
      vertex 0 80.05 22.1
      vertex 0 89 0
      vertex 0 80.05 5
    endloop
  endfacet
  facet normal -1 0 0
    outer loop
      vertex 0 89 0
      vertex 0 8.95 5
      vertex 0 80.05 5
    endloop
  endfacet
  facet normal -1 -0 0
    outer loop
      vertex 0 8.95 5
      vertex 0 0 0
      vertex 0 8.95 22.1
    endloop
  endfacet
  facet normal -1 0 0
    outer loop
      vertex 0 0 0
      vertex 0 8.95 5
      vertex 0 89 0
    endloop
  endfacet
  facet normal -1 0 0
    outer loop
      vertex 0 89 0
      vertex 0 80.05 22.1
      vertex 0 89 31
    endloop
  endfacet
  facet normal -1 0 0
    outer loop
      vertex 0 8.95 22.1
      vertex 0 89 31
      vertex 0 80.05 22.1
    endloop
  endfacet
  facet normal -1 0 0
    outer loop
      vertex 0 8.95 22.1
      vertex 0 0 31
      vertex 0 89 31
    endloop
  endfacet
  facet normal -1 0 0
    outer loop
      vertex 0 0 31
      vertex 0 8.95 22.1
      vertex 0 0 0
    endloop
  endfacet
  facet normal 0 0 1
    outer loop
      vertex 41 135.5 31
      vertex 27 135.5 31
      vertex 41 89 31
    endloop
  endfacet
  facet normal 0 0 1
    outer loop
      vertex 97 135.5 31
      vertex 83 135.5 31
      vertex 97 89 31
    endloop
  endfacet
  facet normal 0 0 1
    outer loop
      vertex 124 89 31
      vertex 119 84 31
      vertex 124 0 31
    endloop
  endfacet
  facet normal -0 0 1
    outer loop
      vertex 97 89 31
      vertex 119 84 31
      vertex 124 89 31
    endloop
  endfacet
  facet normal 0 0 1
    outer loop
      vertex 83 89 31
      vertex 97 89 31
      vertex 83 135.5 31
    endloop
  endfacet
  facet normal -0 0 1
    outer loop
      vertex 83 89 31
      vertex 119 84 31
      vertex 97 89 31
    endloop
  endfacet
  facet normal -0 0 1
    outer loop
      vertex 41 89 31
      vertex 119 84 31
      vertex 83 89 31
    endloop
  endfacet
  facet normal 0 0 1
    outer loop
      vertex 27 89 31
      vertex 41 89 31
      vertex 27 135.5 31
    endloop
  endfacet
  facet normal 0 0 1
    outer loop
      vertex 5 84 31
      vertex 41 89 31
      vertex 27 89 31
    endloop
  endfacet
  facet normal 0 0 1
    outer loop
      vertex 41 89 31
      vertex 5 84 31
      vertex 119 84 31
    endloop
  endfacet
  facet normal 0 0 1
    outer loop
      vertex 5 84 31
      vertex 0 89 31
      vertex 5 5 31
    endloop
  endfacet
  facet normal -0 0 1
    outer loop
      vertex 0 89 31
      vertex 5 84 31
      vertex 27 89 31
    endloop
  endfacet
  facet normal -0 0 1
    outer loop
      vertex 119 5 31
      vertex 124 0 31
      vertex 119 84 31
    endloop
  endfacet
  facet normal -0 0 1
    outer loop
      vertex 5 5 31
      vertex 124 0 31
      vertex 119 5 31
    endloop
  endfacet
  facet normal 0 0 1
    outer loop
      vertex 5 5 31
      vertex 0 0 31
      vertex 124 0 31
    endloop
  endfacet
  facet normal 0 0 1
    outer loop
      vertex 0 0 31
      vertex 5 5 31
      vertex 0 89 31
    endloop
  endfacet
  facet normal 1 -0 0
    outer loop
      vertex 124 0 31
      vertex 124 89 0
      vertex 124 89 31
    endloop
  endfacet
  facet normal 1 0 0
    outer loop
      vertex 124 89 0
      vertex 124 0 31
      vertex 124 0 0
    endloop
  endfacet
  facet normal 0 1 0
    outer loop
      vertex 124 89 31
      vertex 97 89 24
      vertex 97 89 31
    endloop
  endfacet
  facet normal 0 1 0
    outer loop
      vertex 124 89 0
      vertex 83 89 24
      vertex 97 89 24
    endloop
  endfacet
  facet normal 0 1 0
    outer loop
      vertex 83 89 24
      vertex 124 89 0
      vertex 41 89 24
    endloop
  endfacet
  facet normal 0 1 0
    outer loop
      vertex 0 89 0
      vertex 41 89 24
      vertex 124 89 0
    endloop
  endfacet
  facet normal 0 1 -0
    outer loop
      vertex 124 89 0
      vertex 97 89 24
      vertex 124 89 31
    endloop
  endfacet
  facet normal 0 1 -0
    outer loop
      vertex 83 89 24
      vertex 41 89 31
      vertex 83 89 31
    endloop
  endfacet
  facet normal 0 1 0
    outer loop
      vertex 41 89 31
      vertex 83 89 24
      vertex 41 89 24
    endloop
  endfacet
  facet normal 0 1 -0
    outer loop
      vertex 27 89 24
      vertex 0 89 31
      vertex 27 89 31
    endloop
  endfacet
  facet normal 0 1 0
    outer loop
      vertex 27 89 24
      vertex 0 89 0
      vertex 0 89 31
    endloop
  endfacet
  facet normal 0 1 0
    outer loop
      vertex 41 89 24
      vertex 0 89 0
      vertex 27 89 24
    endloop
  endfacet
  facet normal 0 0 -1
    outer loop
      vertex 124 0 0
      vertex 113.3 8.95 0
      vertex 124 89 0
    endloop
  endfacet
  facet normal 0 0 -1
    outer loop
      vertex 124 0 0
      vertex 10.7 8.95 0
      vertex 113.3 8.95 0
    endloop
  endfacet
  facet normal -0 0 -1
    outer loop
      vertex 10.7 8.95 0
      vertex 0 0 0
      vertex 10.7 80.05 0
    endloop
  endfacet
  facet normal 0 0 -1
    outer loop
      vertex 0 0 0
      vertex 10.7 8.95 0
      vertex 124 0 0
    endloop
  endfacet
  facet normal 0 0 -1
    outer loop
      vertex 113.3 80.05 0
      vertex 124 89 0
      vertex 113.3 8.95 0
    endloop
  endfacet
  facet normal 0 0 -1
    outer loop
      vertex 10.7 80.05 0
      vertex 124 89 0
      vertex 113.3 80.05 0
    endloop
  endfacet
  facet normal 0 0 -1
    outer loop
      vertex 10.7 80.05 0
      vertex 0 89 0
      vertex 124 89 0
    endloop
  endfacet
  facet normal 0 0 -1
    outer loop
      vertex 0 89 0
      vertex 10.7 80.05 0
      vertex 0 0 0
    endloop
  endfacet
  facet normal 0 -1 0
    outer loop
      vertex 0 0 0
      vertex 124 0 31
      vertex 0 0 31
    endloop
  endfacet
  facet normal 0 -1 -0
    outer loop
      vertex 124 0 31
      vertex 0 0 0
      vertex 124 0 0
    endloop
  endfacet
  facet normal 1 0 0
    outer loop
      vertex 5 84 31
      vertex 5 80.05 22.1
      vertex 5 84 5
    endloop
  endfacet
  facet normal 1 0 0
    outer loop
      vertex 5 84 31
      vertex 5 8.95 22.1
      vertex 5 80.05 22.1
    endloop
  endfacet
  facet normal 1 -0 0
    outer loop
      vertex 5 5 31
      vertex 5 8.95 22.1
      vertex 5 84 31
    endloop
  endfacet
  facet normal 1 0 0
    outer loop
      vertex 5 5 5
      vertex 5 8.95 22.1
      vertex 5 5 31
    endloop
  endfacet
  facet normal 1 0 0
    outer loop
      vertex 5 8.95 22.1
      vertex 5 5 5
      vertex 5 8.95 5
    endloop
  endfacet
  facet normal 1 0 0
    outer loop
      vertex 5 84 5
      vertex 5 80.05 22.1
      vertex 5 80.05 5
    endloop
  endfacet
  facet normal -1 0 0
    outer loop
      vertex 119 5 5
      vertex 119 84 31
      vertex 119 84 5
    endloop
  endfacet
  facet normal -1 -0 0
    outer loop
      vertex 119 84 31
      vertex 119 5 5
      vertex 119 5 31
    endloop
  endfacet
  facet normal 0 -1 0
    outer loop
      vertex 5 84 5
      vertex 119 84 31
      vertex 5 84 31
    endloop
  endfacet
  facet normal 0 -1 -0
    outer loop
      vertex 119 84 31
      vertex 5 84 5
      vertex 119 84 5
    endloop
  endfacet
  facet normal -0 0 1
    outer loop
      vertex 0 80.05 5
      vertex 5 8.95 5
      vertex 5 80.05 5
    endloop
  endfacet
  facet normal 0 0 1
    outer loop
      vertex 5 8.95 5
      vertex 0 80.05 5
      vertex 0 8.95 5
    endloop
  endfacet
  facet normal 0 0 1
    outer loop
      vertex 119 84 5
      vertex 113.3 80.05 5
      vertex 119 5 5
    endloop
  endfacet
  facet normal 0 0 1
    outer loop
      vertex 119 84 5
      vertex 10.7 80.05 5
      vertex 113.3 80.05 5
    endloop
  endfacet
  facet normal 0 0 1
    outer loop
      vertex 5 80.05 5
      vertex 10.7 80.05 5
      vertex 5 84 5
    endloop
  endfacet
  facet normal -0 0 1
    outer loop
      vertex 5 84 5
      vertex 10.7 80.05 5
      vertex 119 84 5
    endloop
  endfacet
  facet normal -0 0 1
    outer loop
      vertex 113.3 8.95 5
      vertex 119 5 5
      vertex 113.3 80.05 5
    endloop
  endfacet
  facet normal -0 0 1
    outer loop
      vertex 10.7 8.95 5
      vertex 119 5 5
      vertex 113.3 8.95 5
    endloop
  endfacet
  facet normal 0 0 1
    outer loop
      vertex 10.7 80.05 5
      vertex 5 80.05 5
      vertex 10.7 8.95 5
    endloop
  endfacet
  facet normal 0 0 1
    outer loop
      vertex 5 8.95 5
      vertex 10.7 8.95 5
      vertex 5 80.05 5
    endloop
  endfacet
  facet normal 0 0 1
    outer loop
      vertex 5 5 5
      vertex 10.7 8.95 5
      vertex 5 8.95 5
    endloop
  endfacet
  facet normal 0 0 1
    outer loop
      vertex 10.7 8.95 5
      vertex 5 5 5
      vertex 119 5 5
    endloop
  endfacet
  facet normal 0 1 -0
    outer loop
      vertex 119 5 5
      vertex 5 5 31
      vertex 119 5 31
    endloop
  endfacet
  facet normal 0 1 0
    outer loop
      vertex 5 5 31
      vertex 119 5 5
      vertex 5 5 5
    endloop
  endfacet
  facet normal 1 -0 0
    outer loop
      vertex 10.7 8.95 5
      vertex 10.7 80.05 0
      vertex 10.7 80.05 5
    endloop
  endfacet
  facet normal 1 0 0
    outer loop
      vertex 10.7 80.05 0
      vertex 10.7 8.95 5
      vertex 10.7 8.95 0
    endloop
  endfacet
  facet normal -1 0 0
    outer loop
      vertex 113.3 8.95 0
      vertex 113.3 80.05 5
      vertex 113.3 80.05 0
    endloop
  endfacet
  facet normal -1 -0 0
    outer loop
      vertex 113.3 80.05 5
      vertex 113.3 8.95 0
      vertex 113.3 8.95 5
    endloop
  endfacet
  facet normal 0 -1 0
    outer loop
      vertex 10.7 80.05 0
      vertex 113.3 80.05 5
      vertex 10.7 80.05 5
    endloop
  endfacet
  facet normal 0 -1 -0
    outer loop
      vertex 113.3 80.05 5
      vertex 10.7 80.05 0
      vertex 113.3 80.05 0
    endloop
  endfacet
  facet normal 0 1 -0
    outer loop
      vertex 113.3 8.95 0
      vertex 10.7 8.95 5
      vertex 113.3 8.95 5
    endloop
  endfacet
  facet normal 0 1 0
    outer loop
      vertex 10.7 8.95 5
      vertex 113.3 8.95 0
      vertex 10.7 8.95 0
    endloop
  endfacet
  facet normal 0 0 -1
    outer loop
      vertex 0 8.95 22.1
      vertex 5 80.05 22.1
      vertex 5 8.95 22.1
    endloop
  endfacet
  facet normal -0 0 -1
    outer loop
      vertex 5 80.05 22.1
      vertex 0 8.95 22.1
      vertex 0 80.05 22.1
    endloop
  endfacet
  facet normal 0 1 -0
    outer loop
      vertex 5 8.95 5
      vertex 0 8.95 22.1
      vertex 5 8.95 22.1
    endloop
  endfacet
  facet normal 0 1 0
    outer loop
      vertex 0 8.95 22.1
      vertex 5 8.95 5
      vertex 0 8.95 5
    endloop
  endfacet
  facet normal 0 -1 0
    outer loop
      vertex 0 80.05 5
      vertex 5 80.05 22.1
      vertex 0 80.05 22.1
    endloop
  endfacet
  facet normal 0 -1 -0
    outer loop
      vertex 5 80.05 22.1
      vertex 0 80.05 5
      vertex 5 80.05 5
    endloop
  endfacet
  facet normal -1 0 0
    outer loop
      vertex 27 128.5 24
      vertex 27 135.5 0
      vertex 27 128.5 0
    endloop
  endfacet
  facet normal -1 0 0
    outer loop
      vertex 27 135.5 0
      vertex 27 128.5 24
      vertex 27 135.5 31
    endloop
  endfacet
  facet normal -1 0 0
    outer loop
      vertex 27 89 31
      vertex 27 128.5 24
      vertex 27 89 24
    endloop
  endfacet
  facet normal -1 0 0
    outer loop
      vertex 27 128.5 24
      vertex 27 89 31
      vertex 27 135.5 31
    endloop
  endfacet
  facet normal 1 0 0
    outer loop
      vertex 97 135.5 31
      vertex 97 128.5 24
      vertex 97 135.5 0
    endloop
  endfacet
  facet normal 1 -0 0
    outer loop
      vertex 97 89 31
      vertex 97 128.5 24
      vertex 97 135.5 31
    endloop
  endfacet
  facet normal 1 0 0
    outer loop
      vertex 97 128.5 24
      vertex 97 89 31
      vertex 97 89 24
    endloop
  endfacet
  facet normal 1 0 0
    outer loop
      vertex 97 135.5 0
      vertex 97 128.5 24
      vertex 97 128.5 0
    endloop
  endfacet
  facet normal 0 1 -0
    outer loop
      vertex 97 135.5 0
      vertex 83 135.5 31
      vertex 97 135.5 31
    endloop
  endfacet
  facet normal 0 1 0
    outer loop
      vertex 83 135.5 31
      vertex 97 135.5 0
      vertex 83 135.5 0
    endloop
  endfacet
  facet normal 0 1 -0
    outer loop
      vertex 41 135.5 0
      vertex 27 135.5 31
      vertex 41 135.5 31
    endloop
  endfacet
  facet normal 0 1 0
    outer loop
      vertex 27 135.5 31
      vertex 41 135.5 0
      vertex 27 135.5 0
    endloop
  endfacet
  facet normal 0 0 -1
    outer loop
      vertex 27 128.5 0
      vertex 41 135.5 0
      vertex 41 128.5 0
    endloop
  endfacet
  facet normal -0 0 -1
    outer loop
      vertex 41 135.5 0
      vertex 27 128.5 0
      vertex 27 135.5 0
    endloop
  endfacet
  facet normal 0 0 -1
    outer loop
      vertex 83 128.5 0
      vertex 97 135.5 0
      vertex 97 128.5 0
    endloop
  endfacet
  facet normal -0 0 -1
    outer loop
      vertex 97 135.5 0
      vertex 83 128.5 0
      vertex 83 135.5 0
    endloop
  endfacet
  facet normal 0 0 -1
    outer loop
      vertex 27 89 24
      vertex 41 128.5 24
      vertex 41 89 24
    endloop
  endfacet
  facet normal -0 0 -1
    outer loop
      vertex 41 128.5 24
      vertex 27 89 24
      vertex 27 128.5 24
    endloop
  endfacet
  facet normal 0 0 -1
    outer loop
      vertex 83 89 24
      vertex 97 128.5 24
      vertex 97 89 24
    endloop
  endfacet
  facet normal -0 0 -1
    outer loop
      vertex 97 128.5 24
      vertex 83 89 24
      vertex 83 128.5 24
    endloop
  endfacet
  facet normal 0 -1 0
    outer loop
      vertex 27 128.5 0
      vertex 41 128.5 24
      vertex 27 128.5 24
    endloop
  endfacet
  facet normal 0 -1 -0
    outer loop
      vertex 41 128.5 24
      vertex 27 128.5 0
      vertex 41 128.5 0
    endloop
  endfacet
  facet normal 0 -1 0
    outer loop
      vertex 83 128.5 0
      vertex 97 128.5 24
      vertex 83 128.5 24
    endloop
  endfacet
  facet normal 0 -1 -0
    outer loop
      vertex 97 128.5 24
      vertex 83 128.5 0
      vertex 97 128.5 0
    endloop
  endfacet
  facet normal 1 0 0
    outer loop
      vertex 41 135.5 31
      vertex 41 128.5 24
      vertex 41 135.5 0
    endloop
  endfacet
  facet normal 1 -0 0
    outer loop
      vertex 41 89 31
      vertex 41 128.5 24
      vertex 41 135.5 31
    endloop
  endfacet
  facet normal 1 0 0
    outer loop
      vertex 41 128.5 24
      vertex 41 89 31
      vertex 41 89 24
    endloop
  endfacet
  facet normal 1 0 0
    outer loop
      vertex 41 135.5 0
      vertex 41 128.5 24
      vertex 41 128.5 0
    endloop
  endfacet
  facet normal -1 0 0
    outer loop
      vertex 83 128.5 24
      vertex 83 135.5 0
      vertex 83 128.5 0
    endloop
  endfacet
  facet normal -1 0 0
    outer loop
      vertex 83 135.5 0
      vertex 83 128.5 24
      vertex 83 135.5 31
    endloop
  endfacet
  facet normal -1 0 0
    outer loop
      vertex 83 89 31
      vertex 83 128.5 24
      vertex 83 89 24
    endloop
  endfacet
  facet normal -1 0 0
    outer loop
      vertex 83 128.5 24
      vertex 83 89 31
      vertex 83 135.5 31
    endloop
  endfacet
endsolid OpenSCAD_Model
